# xmcd CD database file
#
# Track frame offsets:
#	150
#	13595
#	25100
#	36975
#	49231
#	58835
#	73830
#	86958
#	101003
#	113298
#	128107
#	141393
#	152064
#	166845
#	179321
#	193145
#	204736
#	218891
#
# Disc length: 3302 seconds
#
# Revision: 0
# Processed by: cddbd v1.5.2PL0 Copyright (c) Steve Scherf et al.
# Submitted via: CDex 1.51
#
DISCID=090ce412
DTITLE=Erroll Garner - I'm Coming Virgina [CD1]
DYEAR=2004
DGENRE=Jazz
TTITLE0=I Get A Kick Out Of You
TTITLE1=High Octane
TTITLE2=I Don't Stand A Ghost Of A Chance With You
TTITLE3=Four O'clock Jump
TTITLE4=Keep Happy Baby
TTITLE5=Cherokee, Part 1
TTITLE6=Frantonality
TTITLE7=Everything Happens To Me
TTITLE8=Just You, Just Me
TTITLE9=It's The Talk Of The Town
TTITLE10=Goodbye
TTITLE11=Fine And Dandy
TTITLE12=Boogie Woogie Boogie
TTITLE13=Cherchez La Femme
TTITLE14=Cherokee, Part 2
TTITLE15=Bouncing With Me
TTITLE16=Ja-da
TTITLE17=He Pulled A Fast One, Part 1 and 2
EXTD=YEAR: 2004
EXTT0=
EXTT1=
EXTT2=
EXTT3=
EXTT4=
EXTT5=
EXTT6=
EXTT7=
EXTT8=
EXTT9=
EXTT10=
EXTT11=
EXTT12=
EXTT13=
EXTT14=
EXTT15=
EXTT16=
EXTT17=
PLAYORDER=
